# xmcd CD database file
#
# Track frame offsets:
#	150
#	16511
#	32802
#	48107
#	66461
#	83575
#	104482
#	119522
#	133855
#	151241
#	167837
#	184505
#	202242
#
# Disc length: 2872 seconds
#
# Revision: 1
# Processed by: cddbd v1.5.2PL0 Copyright (c) Steve Scherf et al.
# Submitted via: CDex 1.51
#
DISCID=ac0b360d
DTITLE=FAIRPLAY - Augen Auf
DYEAR=2012
DGENRE=Country
TTITLE0=Augen auf
TTITLE1=Irgendwo auf der Welt
TTITLE2=Loslassen
TTITLE3=Ich bin da
TTITLE4=Gänselieschen
TTITLE5=Apache (Instrumental)
TTITLE6=Get Outta My Head
TTITLE7=Hit The Highway
TTITLE8=Way Down In Mexico
TTITLE9=A Dreamer Like Me
TTITLE10=The Best Adress
TTITLE11=Wait A Minute Mr. Cowboy
TTITLE12=Cotton Eyed Joe
EXTD=YEAR: 2012
EXTT0=
EXTT1=
EXTT2=
EXTT3=
EXTT4=
EXTT5=
EXTT6=
EXTT7=
EXTT8=
EXTT9=
EXTT10=
EXTT11=
EXTT12=
PLAYORDER=
